<svg version="1.1" xmlns="http://www.w3.org/2000/svg" xmlns:xlink="http://www.w3.org/1999/xlink" width="30" height="18" viewBox="0 0 30 18">
<g id="ic_arrow">
<path id="ic_arrow" d="M29.858,8.390 C29.861,8.398 29.862,8.407 29.866,8.415 C29.941,8.597 29.986,8.793 29.986,9.000 C29.986,9.000 29.986,9.001 29.986,9.002 C29.986,9.209 29.941,9.405 29.866,9.586 C29.862,9.595 29.861,9.603 29.858,9.611 C29.771,9.809 29.645,9.988 29.486,10.138 C29.486,10.138 21.638,17.539 21.638,17.539 C21.306,17.853 20.870,18.010 20.434,18.010 C19.999,18.010 19.563,17.853 19.230,17.539 C18.565,16.913 18.565,15.896 19.230,15.268 C19.230,15.268 24.172,10.607 24.172,10.607 C24.172,10.607 1.698,10.607 1.698,10.607 C0.757,10.607 -0.005,9.888 -0.005,9.001 C-0.005,8.114 0.757,7.395 1.698,7.395 C1.698,7.395 24.172,7.395 24.172,7.395 C24.172,7.395 19.230,2.734 19.230,2.734 C18.565,2.107 18.565,1.090 19.230,0.463 C19.895,-0.165 20.974,-0.165 21.638,0.463 C21.638,0.463 29.486,7.864 29.486,7.864 C29.645,8.013 29.771,8.192 29.858,8.390 z" fill="#5D78FF" />
</g>
</svg>
