<svg width="16" height="10" viewBox="0 0 16 10" fill="none" xmlns="http://www.w3.org/2000/svg">
<path d="M0.928711 4.35719C0.573696 4.35719 0.285899 4.64498 0.285899 5C0.285899 5.35502 0.573696 5.64281 0.928711 5.64281V4.35719ZM15.5251 5.45454C15.7762 5.2035 15.7762 4.7965 15.5251 4.54546L11.4343 0.454631C11.1833 0.203597 10.7762 0.203597 10.5252 0.454631C10.2742 0.705665 10.2742 1.11267 10.5252 1.3637L14.1615 5L10.5252 8.6363C10.2742 8.88733 10.2742 9.29434 10.5252 9.54537C10.7762 9.7964 11.1833 9.7964 11.4343 9.54537L15.5251 5.45454ZM0.928711 5.64281L15.0706 5.64281V4.35719L0.928711 4.35719V5.64281Z" fill="#811810"/>
</svg>
