<svg width="819" height="59" viewBox="0 0 819 59" fill="none" xmlns="http://www.w3.org/2000/svg">
<mask id="mask0_9_182" style="mask-type:luminance" maskUnits="userSpaceOnUse" x="0" y="0" width="546" height="59">
<path d="M545.945 0H0V58.2053H545.945V0Z" fill="white"/>
</mask>
<g mask="url(#mask0_9_182)">
<path d="M32.6797 34.0531L16.4714 -0.000488281H-2.02051V58.4312H16.4714V41.9838L24.0984 58.4312H41.0636L48.8815 41.9838V58.4312H67.1826V-0.000488281H48.6907L32.6797 34.0531Z" fill="white"/>
<path d="M182.253 -0.233398H162.998V58.205H182.253V-0.233398Z" fill="white"/>
<path d="M387.198 27.8268L364.343 0.505371H348.154V58.198H366.442V30.8832L389.297 58.2046H405.677V0.505371H387.198V27.8268Z" fill="white"/>
<path d="M506.947 0.505371L497.8 32.7876L488.462 0.505371H469.213L460.066 32.7876L450.722 0.505371H430.9L447.675 58.198H472.451L478.933 35.4645L485.415 58.198H510.192L526.775 0.505371H506.947Z" fill="white"/>
<path d="M73.6647 57.4058L101.955 0.465634V-0.000488281H129.259L147.31 34.4726C147.31 34.4726 129.923 40.5588 122.658 23.552L118.552 14.6624H113.814L106.536 31.6625C106.536 31.6625 120.283 30.1043 126.765 37.276C133.247 44.4542 148.573 41.3312 150.153 39.6132L157.424 53.3438C157.424 53.3438 143.467 66.362 118.23 49.7547C114.913 47.5706 111.116 46.4785 107.167 46.7915C102.587 47.1045 96.4407 51.2729 93.5912 58.4512L72.9014 58.7043L73.6647 57.4058Z" fill="white"/>
<path d="M243.066 -0.000488281H208.544C208.544 -0.000488281 196.981 -0.000488281 193.658 9.32195C193.026 10.9267 192.868 12.5382 192.868 14.143V22.8195C192.868 25.5497 193.658 28.4463 195.402 30.5372C197.62 33.4271 202.055 36.1639 210.13 35.8443C210.603 35.8443 211.077 35.8443 211.558 35.8443H237.479C239.539 36.0041 241.401 37.5823 242.033 39.6665C242.349 40.9517 242.277 44.8405 237.479 44.8405H212.973C212.973 44.8405 208.537 44.8404 209.333 38.0883H192.072C192.072 38.0883 187.946 58.9839 208.537 58.1782H247.186C247.186 58.1782 261.124 57.3725 260.328 44.0347C259.538 30.697 261.117 23.9449 244.652 23.1391C228.371 22.8195 214.17 22.8195 214.17 22.8195C214.17 22.8195 211.084 22.8195 211.084 18.6377C211.084 15.9742 212.347 14.1363 214.723 14.1363H238.953C238.953 14.1363 242.277 14.1363 242.277 19.9229H258.748C258.748 19.9229 262.071 5.77942 249.719 0.798578L243.066 -0.000488281Z" fill="white"/>
<mask id="mask1_9_182" style="mask-type:luminance" maskUnits="userSpaceOnUse" x="269" y="0" width="70" height="59">
<path d="M338.059 0.505859H269.435V58.1984H338.059V0.505859Z" fill="white"/>
</mask>
<g mask="url(#mask1_9_182)">
<path d="M321.936 0.518868H284.649C284.649 0.518868 270.264 0.93172 269.435 14.2095V45.6595C269.435 45.6595 270.264 57.3591 283.491 58.1915H323.258C323.258 58.1915 338.059 59.0238 338.059 44.9137V11.3928C338.059 11.3928 337.236 0.106018 321.936 0.518868ZM321.113 36.3703C321.113 40.4389 317.889 43.6751 313.835 43.6751H293.665C289.611 43.6751 286.387 40.4389 286.387 36.3703V22.7595C286.387 18.691 289.611 15.4547 293.665 15.4547H313.835C317.889 15.4547 321.113 18.691 321.113 22.7595V36.3703Z" fill="white"/>
</g>
</g>
<path d="M549.516 45.3472H586.901V58.5237H534.362V0.665039H585.911V13.8514H549.516V22.4456H578.606V35.6221H549.516V45.3472Z" fill="white"/>
<path d="M631.592 0.665039L652.74 58.5237H637.462L634.07 49.2215H609.57L606.169 58.5237H590.891L612.057 0.665039H631.592ZM621.82 15.7295L614.387 36.045H629.253L621.82 15.7295Z" fill="white"/>
<path d="M674.452 45.3472H707.273V58.5237H659.39V0.665039H674.452V45.3472Z" fill="white"/>
<path d="M699.292 0.665039H754.49V13.8491H734.513V58.5237H719.259V13.8393H699.292V0.665039Z" fill="white"/>
<path d="M803.811 0.665039H819V58.5237H803.811V36.1826H775.666V58.5237H760.477V0.665039H775.666V23.0061H803.811V0.665039Z" fill="white"/>
</svg>
