<svg width="788" height="88" viewBox="0 0 788 88" fill="none" xmlns="http://www.w3.org/2000/svg">
<path d="M48.367 51.2051L24.3782 0H-2.99023V87.8617H24.3782V63.1302L35.6665 87.8617H60.7753L72.346 63.1302V87.8617H99.432V0H72.0636L48.367 51.2051Z" fill="white"/>
<path d="M269.739 -0.350403H241.241V87.5213H269.739V-0.350403Z" fill="white"/>
<path d="M573.062 41.8432L539.236 0.760956H515.276V87.5112H542.343V46.439L576.169 87.5212H600.411V0.760956H573.062V41.8432Z" fill="white"/>
<path d="M750.295 0.760956L736.757 49.3027L722.936 0.760956H694.447L680.909 49.3027L667.079 0.760956H637.743L662.57 87.5112H699.239L708.833 53.3278L718.427 87.5112H755.096L779.64 0.760956H750.295Z" fill="white"/>
<path d="M109.025 86.3197L150.896 0.700891V0H191.306L218.022 51.8359C218.022 51.8359 192.29 60.9875 181.537 35.415L175.46 22.048H168.447L157.675 47.6105C157.675 47.6105 178.021 45.2675 187.615 56.0513C197.208 66.845 219.892 62.149 222.229 59.5657L232.992 80.212C232.992 80.212 212.334 99.7868 174.982 74.8151C170.073 71.5309 164.454 69.8888 158.61 70.3594C151.831 70.83 142.734 77.098 138.517 87.8917L107.896 88.2722L109.025 86.3197Z" fill="white"/>
<path d="M359.744 0H308.65C308.65 0 291.537 0 286.619 14.0178C285.684 16.4309 285.45 18.854 285.45 21.267V34.3136C285.45 38.4188 286.619 42.7744 289.2 45.9184C292.482 50.2639 299.046 54.3791 310.997 53.8985C311.698 53.8985 312.399 53.8985 313.11 53.8985H351.475C354.524 54.1388 357.28 56.5118 358.215 59.6458C358.682 61.5783 358.575 67.4257 351.475 67.4257H315.205C315.205 67.4257 308.64 67.4257 309.819 57.2728H284.271C284.271 57.2728 278.165 88.6927 308.64 87.4812H365.841C365.841 87.4812 386.47 86.2697 385.291 66.2142C384.122 46.1587 386.46 36.0058 362.091 34.7942C337.995 34.3136 316.977 34.3136 316.977 34.3136C316.977 34.3136 312.409 34.3136 312.409 28.0256C312.409 24.0205 314.279 21.257 317.795 21.257H353.657C353.657 21.257 358.575 21.257 358.575 29.9581H382.954C382.954 29.9581 387.872 8.69105 369.591 1.20153L359.744 0Z" fill="white"/>
<mask id="mask0_16_489" style="mask-type:luminance" maskUnits="userSpaceOnUse" x="398" y="0" width="103" height="88">
<path d="M500.336 0.760986H398.771V87.5113H500.336V0.760986Z" fill="white"/>
</mask>
<g mask="url(#mask0_16_489)">
<path d="M476.474 0.781242H421.289C421.289 0.781242 399.998 1.40203 398.771 21.3674V68.6575C398.771 68.6575 399.998 86.2499 419.574 87.5015H478.431C478.431 87.5015 500.336 88.7531 500.336 67.5361V17.132C500.336 17.132 499.118 0.160453 476.474 0.781242ZM475.256 54.6898C475.256 60.8075 470.484 65.6737 464.484 65.6737H434.632C428.632 65.6737 423.86 60.8075 423.86 54.6898V34.2238C423.86 28.106 428.632 23.2398 434.632 23.2398H464.484C470.484 23.2398 475.256 28.106 475.256 34.2238V54.6898Z" fill="white"/>
</g>
<path d="M776.377 72.9327H782.893C785.221 72.9327 787.101 74.8651 787.101 77.2582V83.1957C787.101 85.5888 785.221 87.5212 782.893 87.5212H776.377C774.05 87.5212 772.17 85.5888 772.17 83.1957V77.2582C772.16 74.8651 774.05 72.9327 776.377 72.9327Z" fill="white"/>
</svg>
