<svg version="1.1" xmlns="http://www.w3.org/2000/svg" xmlns:xlink="http://www.w3.org/1999/xlink" width="14" height="30" viewBox="0 0 14 30">
<path id="ic_fb" d="M9.308,29.999 L3.101,29.999 L3.101,14.998 L-0.002,14.998 L-0.002,9.827 L3.101,9.827 C3.101,9.827 3.101,6.723 3.101,6.723 C3.101,2.506 4.852,-0.003 9.827,-0.003 C9.827,-0.003 13.970,-0.003 13.970,-0.003 L13.970,5.168 C13.970,5.168 11.382,5.168 11.382,5.168 C9.444,5.168 9.316,5.891 9.316,7.239 C9.316,7.239 9.308,9.827 9.308,9.827 L14.000,9.827 L13.451,14.998 L9.308,14.998 L9.308,29.999 z" fill="#FFFFFF" />
</svg>
