<svg version="1.1" xmlns="http://www.w3.org/2000/svg" xmlns:xlink="http://www.w3.org/1999/xlink" width="30" height="30" viewBox="0 0 30 30">
<path id="ic_insta" d="M21.341,30.000 C21.341,30.000 8.659,30.000 8.659,30.000 C3.877,30.000 -0.000,26.123 -0.000,21.340 C-0.000,21.340 -0.000,8.659 -0.000,8.659 C-0.000,3.876 3.877,-0.001 8.659,-0.001 C8.659,-0.001 21.341,-0.001 21.341,-0.001 C26.123,-0.001 30.000,3.876 30.000,8.659 C30.000,8.659 30.000,21.340 30.000,21.340 C30.000,26.123 26.123,30.000 21.341,30.000 zM27.237,8.584 C27.237,5.410 24.664,2.837 21.489,2.837 C21.489,2.837 8.511,2.837 8.511,2.837 C5.336,2.837 2.763,5.410 2.763,8.584 C2.763,8.584 2.763,21.563 2.763,21.563 C2.763,24.738 5.336,27.311 8.511,27.311 C8.511,27.311 21.489,27.311 21.489,27.311 C24.664,27.311 27.237,24.738 27.237,21.563 C27.237,21.563 27.237,8.584 27.237,8.584 zM23.043,8.808 C22.042,8.808 21.230,7.996 21.230,6.994 C21.230,5.993 22.042,5.181 23.043,5.181 C24.045,5.181 24.857,5.993 24.857,6.994 C24.857,7.996 24.045,8.808 23.043,8.808 zM15.000,22.858 C10.701,22.858 7.216,19.373 7.216,15.074 C7.216,10.775 10.701,7.290 15.000,7.290 C19.299,7.290 22.784,10.775 22.784,15.074 C22.784,19.373 19.299,22.858 15.000,22.858 zM15.000,10.028 C12.213,10.028 9.954,12.287 9.954,15.074 C9.954,17.861 12.213,20.120 15.000,20.120 C17.787,20.120 20.046,17.861 20.046,15.074 C20.046,12.287 17.787,10.028 15.000,10.028 z" fill="#FFFFFF" />
</svg>
