<svg version="1.1" xmlns="http://www.w3.org/2000/svg" xmlns:xlink="http://www.w3.org/1999/xlink" width="30" height="20" viewBox="0 0 30 20">
<g id="ic_youtube">
<path id="ic_youtube" d="M29.700,4.314 C29.700,4.314 29.407,2.354 28.507,1.492 C27.367,0.359 26.088,0.353 25.502,0.287 C21.304,-0.000 15.007,-0.000 15.007,-0.000 L14.993,-0.000 C14.993,-0.000 8.696,-0.000 4.498,0.287 C3.912,0.353 2.633,0.359 1.492,1.492 C0.593,2.354 0.300,4.314 0.300,4.314 C0.300,4.314 0.000,6.615 0.000,8.916 C0.000,8.916 0.000,11.073 0.000,11.073 C0.000,13.375 0.300,15.676 0.300,15.676 C0.300,15.676 0.593,17.635 1.492,18.498 C2.633,19.631 4.133,19.595 4.800,19.714 C7.200,19.932 15.000,20.000 15.000,20.000 C15.000,20.000 21.304,19.991 25.502,19.703 C26.088,19.637 27.367,19.631 28.507,18.498 C29.407,17.635 29.700,15.676 29.700,15.676 C29.700,15.676 30.000,13.375 30.000,11.073 C30.000,11.073 30.000,8.916 30.000,8.916 C30.000,6.615 29.700,4.314 29.700,4.314 zM19.980,11.366 C19.980,11.366 12.081,15.130 12.081,15.130 C11.014,15.638 9.758,14.900 9.758,13.764 C9.758,13.764 9.758,6.235 9.758,6.235 C9.758,5.099 11.014,4.361 12.081,4.869 C12.081,4.869 19.980,8.634 19.980,8.634 C21.161,9.196 21.161,10.803 19.980,11.366 z" fill="#FFFFFF" />
</g>
</svg>
